<svg width="50" height="50" viewBox="0 0 50 50" fill="none" xmlns="http://www.w3.org/2000/svg">
<rect width="50" height="50" rx="25" fill="#FFCA40" fill-opacity="0.1"/>
<g clip-path="url(#clip0_2880_4818)">
<path d="M29.4338 16C30.0823 16 30.6868 16.3141 31.0603 16.8362L31.1488 16.971L33.5725 21.0105C33.8122 21.4101 33.9551 21.8592 33.991 22.3217L34 22.554V32C34 33.0544 33.1841 33.9182 32.1493 33.9945L32 34H18C16.9456 34 16.0818 33.1841 16.0055 32.1493L16 32V22.554C16 22.0879 16.1086 21.6294 16.3158 21.2143L16.4275 21.0105L18.8512 16.971C19.1848 16.4149 19.7652 16.0581 20.4051 16.0065L20.5662 16H29.4338ZM29.4338 18H26V22H31.8338L29.4338 18ZM24 18H20.5662L18.1662 22H24V18Z" fill="#FFB612"/>
</g>
<defs>
<clipPath id="clip0_2880_4818">
<rect width="24" height="24" fill="white" transform="translate(13 13)"/>
</clipPath>
</defs>
</svg>
