<svg width="50" height="50" viewBox="0 0 50 50" fill="none" xmlns="http://www.w3.org/2000/svg">
<rect width="50" height="50" rx="25" fill="#0122F3" fill-opacity="0.1"/>
<g clip-path="url(#clip0_2880_4826)">
<path d="M34 23V32C34 33.1046 33.1046 34 32 34H18C16.8954 34 16 33.1046 16 32V23H34ZM27 26H23C22.4477 26 22 26.4477 22 27C22 27.5523 22.4477 28 23 28H27C27.5523 28 28 27.5523 28 27C28 26.4477 27.5523 26 27 26ZM33 16C34.1046 16 35 16.8954 35 18V21H15V18C15 16.8954 15.8954 16 17 16H33Z" fill="#0122F3"/>
</g>
<defs>
<clipPath id="clip0_2880_4826">
<rect width="24" height="24" fill="white" transform="translate(13 13)"/>
</clipPath>
</defs>
</svg>
