<svg width="50" height="50" viewBox="0 0 50 50" fill="none" xmlns="http://www.w3.org/2000/svg">
<rect width="50" height="50" rx="25" fill="#15C257" fill-opacity="0.1"/>
<g clip-path="url(#clip0_2880_4840)">
<path fill-rule="evenodd" clip-rule="evenodd" d="M28.9923 16.0132C30.3256 15.2355 32 16.1972 32 17.7408V20.9998C33.6569 20.9998 35 22.3429 35 23.9998C35 25.6567 33.6569 26.9998 32 26.9998V29.9998C32 31.6479 30.1185 32.5887 28.8 31.5998L26.7391 30.0541C25.6345 29.2257 24.3518 28.6764 23 28.4459V31.2897C23 32.7865 21.7866 33.9998 20.2899 33.9998C19.0799 33.9998 18.0165 33.1977 17.6841 32.0342L16.1136 26.5375C15.4177 25.7165 15 24.6547 15 23.4998C15 21.0054 16.9486 18.9455 19.4391 18.8072L22.4578 18.6395C23.9342 18.5574 25.3701 18.1261 26.6475 17.381L28.9923 16.0132ZM18.6337 28.0778L19.6071 31.4848C19.6942 31.7896 19.9729 31.9998 20.2899 31.9998C20.6821 31.9998 21 31.6819 21 31.2897V28.2791L19.4391 28.1924C19.1634 28.1771 18.8943 28.1382 18.6337 28.0778ZM33 23.9998C33 23.4475 32.5523 22.9998 32 22.9998V24.9998C32.5523 24.9998 33 24.5521 33 23.9998Z" fill="#15C257"/>
</g>
<defs>
<clipPath id="clip0_2880_4840">
<rect width="24" height="24" fill="white" transform="translate(13 13)"/>
</clipPath>
</defs>
</svg>
