<svg height="512pt" viewBox="0 0 512 512" width="512pt" xmlns="http://www.w3.org/2000/svg"><path d="m512 256c0 141.386719-114.613281 256-256 256s-256-114.613281-256-256 114.613281-256 256-256 256 114.613281 256 256zm0 0" fill="#ffce00"/><path d="m512 256c0-13.414062-1.035156-26.589844-3.027344-39.449219l-73.972656-73.972656-332.5 243.824219 123.882812 123.882812c9.71875 1.121094 19.597657 1.714844 29.617188 1.714844 141.386719 0 256-114.613281 256-256zm0 0" fill="#ffa300"/><path d="m415.238281 317.039062h-218.5c-15.921875 0-28.828125-12.910156-28.828125-28.832031v-124.644531c0-15.921875 12.90625-28.832031 28.828125-28.832031h218.5c15.921875 0 28.828125 12.910156 28.828125 28.832031v124.644531c0 15.921875-12.90625 28.832031-28.828125 28.832031zm0 0" fill="#fff"/><path d="m415.238281 134.730469h-110.238281v182.308593h110.238281c15.921875 0 28.828125-12.910156 28.828125-28.832031v-124.644531c0-15.921875-12.90625-28.832031-28.828125-28.832031zm0 0" fill="#e9edf5"/><path d="m167.910156 179h276.15625v46.886719h-276.15625zm0 0" fill="#27488f"/><path d="m305 179h139.066406v46.886719h-139.066406zm0 0" fill="#27488f"/><path d="m342.238281 395.742188h-218.5c-15.921875 0-28.828125-12.90625-28.828125-28.832032v-124.644531c0-15.921875 12.90625-28.828125 28.828125-28.828125h218.5c15.921875 0 28.828125 12.90625 28.828125 28.828125v124.648437c0 15.921876-12.90625 28.828126-28.828125 28.828126zm0 0" fill="#fe6a16"/><path d="m342.238281 213.4375h-110.453125v182.304688h110.453125c15.921875 0 28.832031-12.90625 28.832031-28.828126v-124.648437c-.003906-15.921875-12.910156-28.828125-28.832031-28.828125zm0 0" fill="#f24500"/><path d="m227.90625 321.691406 3.902344-15.304687-47.84375-33.96875.394531-12.910157c0-6.0625-2.558594-11.847656-7.046875-15.929687-3.386719-3.078125-8.5625-3.078125-11.949219 0-4.488281 4.082031-7.046875 9.867187-7.046875 15.929687l.394532 12.910157-47.847657 33.96875 3.902344 15.304687 45.242187-6.71875 1.183594 38.871094-6.742187 3.824219v10.242187l16.886719-6.917968 16.890624 6.917968v-10.242187l-6.746093-3.824219 1.1875-38.871094zm0 0" fill="#fff"/><path d="m171.339844 360.992188 16.886718 6.917968v-10.242187l-6.746093-3.824219 1.1875-38.871094 45.242187 6.722656 3.898438-15.304687-47.84375-33.96875.394531-12.910156c0-6.066407-2.558594-11.851563-7.046875-15.929688-1.761719-1.605469-4.011719-2.363281-6.242188-2.300781zm0 0" fill="#e9edf5"/><path d="m253 280.058594h98v27h-98zm0 0" fill="#ff9500"/><path d="m253 334.171875h98v27h-98zm0 0" fill="#ff9500"/><g fill="#fe6a16"><path d="m302.617188 280.058594h48.382812v27h-48.382812zm0 0"/><path d="m302.617188 334.171875h48.382812v27h-48.382812zm0 0"/></g></svg>