<?xml version="1.0" encoding="iso-8859-1"?>
<!-- Generator: Adobe Illustrator 19.0.0, SVG Export Plug-In . SVG Version: 6.00 Build 0)  -->
<svg version="1.1" id="Capa_1" xmlns="http://www.w3.org/2000/svg" xmlns:xlink="http://www.w3.org/1999/xlink" x="0px" y="0px"
	 viewBox="0 0 512 512" style="enable-background:new 0 0 512 512;" xml:space="preserve">
<path style="fill:#FFEA84;" d="M512,105C512,47.103,464.897,0,407,0H105C47.103,0,0,47.103,0,105v407h30v-60h482V105z"/>
<path style="fill:#FFDC40;" d="M407,0H256c-57.897,0-105,47.103-105,105v347h361V105C512,47.103,464.897,0,407,0z"/>
<path style="fill:#FFFFFF;" d="M247,370H55V230h192V370z"/>
<g>
	<path style="fill:#FFAB15;" d="M407,0c-57.897,0-105,47.103-105,105v407h30v-60h150v60h30V105C512,47.103,464.897,0,407,0z"/>
	<rect x="55" y="100" style="fill:#FFAB15;" width="192" height="40"/>
</g>
<rect x="151" y="100" style="fill:#FF9400;" width="96" height="40"/>
<g>
	<path style="fill:#DCF4FF;" d="M247,370h-96V230h96V370z"/>
	<polygon style="fill:#DCF4FF;" points="247,230 151,300 55,230 55,370 247,370 	"/>
</g>
<polygon style="fill:#CCEFFF;" points="151,300 151,370 247,370 247,230 "/>
<g>
</g>
<g>
</g>
<g>
</g>
<g>
</g>
<g>
</g>
<g>
</g>
<g>
</g>
<g>
</g>
<g>
</g>
<g>
</g>
<g>
</g>
<g>
</g>
<g>
</g>
<g>
</g>
<g>
</g>
</svg>
