<svg width="33" height="37" viewBox="0 0 33 37" fill="none" xmlns="http://www.w3.org/2000/svg">
<path d="M16.0033 4.58307V1.00307C16.0033 0.103069 14.9233 -0.336931 14.3033 0.303069L8.70329 5.88307C8.30329 6.28307 8.30329 6.90307 8.70329 7.30307L14.2833 12.8831C14.9233 13.5031 16.0033 13.0631 16.0033 12.1631V8.58307C22.6233 8.58307 28.0033 13.9631 28.0033 20.5831C28.0033 26.0231 24.3433 30.6231 19.3833 32.0831C18.5433 32.3231 18.0033 33.1231 18.0033 33.9831C18.0033 35.2831 19.2433 36.3031 20.5033 35.9231C23.8212 34.9537 26.7355 32.9347 28.8089 30.1689C30.8823 27.4032 32.0031 24.0397 32.0033 20.5831C32.0033 11.7431 24.8433 4.58307 16.0033 4.58307ZM4.00329 20.5831C4.00329 17.9031 4.88329 15.4231 6.38329 13.4031C6.98329 12.6031 6.90329 11.5031 6.20329 10.7831C5.36329 9.94307 3.92329 10.0231 3.20329 10.9831C1.65123 13.0494 0.623396 15.4613 0.207908 18.012C-0.20758 20.5626 0.00166827 23.176 0.817715 25.6281C1.63376 28.0802 3.03227 30.2978 4.89334 32.0908C6.75441 33.8839 9.02254 35.1989 11.5033 35.9231C12.7633 36.3031 14.0033 35.2831 14.0033 33.9831C14.0033 33.1231 13.4633 32.3231 12.6233 32.0831C7.66329 30.6231 4.00329 26.0231 4.00329 20.5831Z" fill="#153853"/>
</svg>
